<?xml version="1.0" encoding="utf-8"?>
<!-- Generator: Adobe Illustrator 19.2.1, SVG Export Plug-In . SVG Version: 6.00 Build 0)  -->
<svg version="1.1" id="Слой_1" xmlns="http://www.w3.org/2000/svg" xmlns:xlink="http://www.w3.org/1999/xlink" x="0px" y="0px"
	 viewBox="0 0 700 400" style="enable-background:new 0 0 700 400;" xml:space="preserve">
<style type="text/css">
	.st0{fill:#0E0F10;}
</style>
<path class="st0" d="M676.7,137.2c-11-6.5-30.7-10-55.9-12.2c-38.6-3.3-62.4,7.8-82.7,11.7c-16,3.1-20.9-8.2-23.2-28.1
	c0,0-6.4-50.5-8.4-67.1c-3.3-26.9-32.2-30.2-32.2-30.2H165.7H164c-33.2,0-66.1,0-98.5,0c-21.1,0.1-24.9,1.4-22.7,8.5
	c12.7-0.3,1.8-4.7,10.3-5.3c37.1-1.4,56.1-0.5,65.6,1.4c-1,0.3-1.8,0.5-2,0.6c-0.6,0.1-6.3,0.2-6.3,0.2s1.7,2.1,5.5,1.2
	c2.5-0.5,5.5-0.7,7.5-0.7c1.2,0.5,2.1,1,2.7,1.5c-5.4,0-12.5-0.1-19.2-0.2l9.4,1.3l10.8,0.2c0.1,0.2,0.1,0.3,0.2,0.5
	c-2.2,0.1-5.6,0.3-6.6,0.3c-0.8,0.1-5.6,0.6-5.6,0.6s1.2,0.9,3.5,0.8c1.7-0.1,4.7,0.6,6.5,0.8c-0.3,0.1-0.6,0.4-0.6,0.4
	s-10.9,0-12.7,0c-1.8,0-10.9-0.1-10.9-0.1l-18.3-1.7c-4.8,1,0.9,2,0.9,2l3.3-0.2h4.1l4.3,0.2c0,0,5.7,0.5,6.4,0.5c0.6,0,9,0.1,9,0.1
	s6.6,0.6,7.2,0.6c0.6,0,2.3,0.2,2.3,0.2l0.2,0.1c-3.1,0.3-7.9,0.8-8.9,0.8c-1.4,0-11.8-0.4-7.7,1.2c0.3,0.1,13.7-0.3,13.7-0.3
	l4.5,0.8c-0.1,0.3-0.1,0.7-0.1,1c-0.4-0.1-0.6-0.1-0.6-0.1s-8.6,0.4-11.3,0.4l0.4,1.4l6.4,0.8c0,0,2.4-0.1,4.5-0.4
	c-0.5,0.3-1.4,0.5-3.1,0.4c1.7,0.8,2.6,2.4,3,4.5c-2.7-0.1-4.9-0.2-4.9-0.2s-1.6,1.5-1,1.5c0.5,0,4.1,0.6,6.2,0.8
	c0,0.6,0.1,1.2,0.1,1.9l-0.9-0.5l-4.2,0.4h-4.8c0,0-4.3-4.4-6.1-1.1c-0.4,0.7,4.3,2.4,4.3,2.4s3.2-0.2,5.2,0
	c1.9,0.1,3.9,0.2,4.7,0.3c0.3,0,0.9,0.1,1.7,0.2c0,0.5,0,1-0.1,1.5c-4.1-0.2-6.8,0.8-8.2,3.3c6.3,1,6.8,2.3,3,4.3
	c-0.4-0.1-0.7-0.1-0.9-0.1c-0.7,0-4.5,0.1-7,0.1s-6.1-0.1-7.4-0.4c-1.3-0.3-3.7-1-5.2-1.3c-1.5-0.3-2.9,0.8-3.4,1.1
	c-0.5,0.3,0.5,1.8,1.8,1.7c0.9-0.1,1.6-0.1,1.8-0.1l2,1c0.8,0.1,5.2,0.7,6.9,0.7c1.4,0,7.3,0.4,12.5-0.4c4,1.9,8-1,10.8,3.2
	c-1.4,3.8-7.6-3.3-8.2,2c-2.7,0-12,0.1-12.6,0c-0.7-0.1-2.2-2.4-3.9-1.3c0,0-0.4,2.8,2.3,2.8c2,0,10.2-0.2,14.2-0.3
	c0,0.1,0,0.2,0,0.2c2.8-0.4,4.1,1.9,0,1.6c0,0.1,0,0.1,0,0.2c-0.3,0-0.5,0.3-0.5,0.3l-3.3,0.2h-4.4c0,0-6.4-0.6-7.5,0.1
	c-0.9,0.6,4.3,0.9,6.4,0.9c2.1,0,6.1,0,6.1,0s1.6,0.1,3.5,0.2c1.3,2.4,7.7-1.8,9.7,3c-1.4-0.1-2.5,0.1-3.3,0.6
	c-2.6-0.2-5.6-0.5-5.8-0.5c-0.3,0-1.3-0.5-2.1,0.6c-0.7,1.1,0.2,1.5-1.8,2.2c-2.1,0.6-5.5,0.4-6.1,0.6c-0.5,0.2-4.1,1.4-1.1,2.5
	c3,1,10.1,2.8,10.9,0.6c0.8-2.2-0.2-2.5,1.2-2.9c1.4-0.4,2.2-0.4,2.5-0.4c0.1,0,0.4,0.1,0.7,0.2c0,0.5-0.1,0.9,0,1.5
	c2.5,1.1,3.8,1.4,4.1,2.4c-1.5,0.4-4.8,0.4-5.7,0.7c-0.9,0.3-5.3,1.2-3.8,1.4c1.5,0.2,5.2,0.7,6.7,0c1.4-0.7,1.7-0.9,2.7-0.9
	c0,0,0.1,0,0.1,0c-0.1,0.7-0.4,1.7-0.9,3c3.9,3.4,5.6-1.1,7.8-1.3c-0.5,0.2-1,0.6-1.6,1c-0.5,0.3-3.6,3.6-3.6,3.6h-4.2
	c0,0-3.9,0-5.4,0.5c-1.5,0.5-7.1,0.6-7.1,0.6s-4.7-1.4-4.4-0.9c0.3,0.5-0.6,2.4,2.1,2.4c2.7,0,5.2-0.3,5.6-0.4c0.4-0.1,3.5-1,5.9-1
	c2.4,0,4.9,0.7,7.2,0c2.1-0.7,2.4-0.4,4-0.8c-0.5,0.8-0.9,1.7-1.1,2.6c-1.2,0.2-2.4,0.5-2.8,0.5c-0.8,0-1.5-1.3-2.9,0.1
	c-1.3,1.4-3,2.4-4.3,2.7c-1.3,0.3-7.3,0-4.1,0.3c3.2,0.3,10.9,1.3,11.5,0.2c0.6-1.1-0.9-2.4,0.8-2.3c0.6,0,1.1,0.1,1.5,0.3
	c-0.1,1.2-0.1,2.6,0,4c-1,0.2-2,0.4-2.2,0.4c-0.3,0-3.2-0.2-3.2-0.2l-3.4,0.3c0,0-5.3-0.1-1.7,1c0,0,5.5,0.3,6.1,0.3
	c0.3,0,2.7,0.1,4.6,0.1c0,0.3,0,0.6,0.1,0.9c0-0.3,0.1-0.6,0.2-0.9c0.9,0,1.6,0,1.8-0.1c0.7-0.3,2.6-1.2,3.2-1.5
	c0.5,0.2,0.9,0.5,1.3,0.9c-1.2,0.4-1.9,1-2.2,1.8c-2.1-0.1-4.4-0.2-4.4-0.2s-1.4,0.3-2.1,1c-0.6,0.7-3.7,0.8-2.1,1.4
	c0.8,0.3,2.5,0.7,4.2,0.9c-1.9,0.6-4.5,1.4-4.5,1.4c-0.5,0.2-3,1-3.4,1.2c-0.4,0.2-1.8,0.5-1.8,0.5s-0.5,0.5,2.9,0.5
	c3.4,0,2.6,0.1,4.3-0.1c1.7-0.2,3.2-0.4,4.4-0.2c1,0.2,2.6,0.9,3.7,0.6c0.3,0.9,0.7,1.7,0.9,2.5c-2.3,0.3-6.2-0.9-6.8,1.1
	c-1,0.2-2.2,0.5-3.2,0.7c-1.5,0.3-4.1,0.1-4.6,0.4c-0.5,0.3-2.9,1.1-0.9,1.3c2,0.2,2.8,0.2,4.6,0.2c1.8,0,2.9,0.5,4.2,0.4
	c0.4,0,0.9-0.1,1.2-0.3c1.8,1,2.5,1.8,2.6,2.6c-0.2,0.2-0.4,0.4-0.9,0.6c-2.2,0.6-5.6,0.4-5.9,0.7c-0.2,0.3-2.5,2-1,2.7
	c1.4,0.7,2,1.8,4.3,1.5c1.9-0.2,2.9-0.4,3.8-0.7c0.5,0.6,1.2,1.2,2.4,2c-17-0.2-48.5-1.2-63.9,1.3l-5.9-0.1l4.4,0.7
	c0.4,0.7,0.5,1.9,0.5,3.4l-1.8,1c0,0-0.7,1.1,0.6,1.5c0.3,0.1,0.7,0.3,1,0.4c-0.2,3.8-0.3,8.3,1.9,10.9c-0.5,0.2-1,0.5-1,0.5
	s0.3,1.8,2.3,1.8c0.8,0,1.8,0,2.8,0c0.9,0,1.9,0,3.1-0.1c2.6-5.8-5.6-1-4.9-5C77.7,121,88.8,120,97.5,120.6c-0.1,0-0.1,0-0.2,0.1
	c-0.7,0.3-5.1,2-7,2.4c-1.8,0.3-2.5,1.9-2.5,1.9s2.2-0.2,2.5-0.4c0.3-0.2,3.2-1,3.6-1.4c0.3-0.3,3.5-1.7,5.2-2.4
	c2.3,0.2,4.3,0.5,5.8,0.7c0.6,0.5,1.4,1.1,1.9,1.7c-0.4,0.9-0.9,2-1.5,3.1c-0.8,0.1-1.5,0.2-1.7,0.3c-0.5,0.3-1.7,1.3-1.3,1.5
	c0.4,0.2-0.8,1.6,1.2,1.4c0.1,0,0.2,0,0.3,0c-0.5,1.1-0.9,2.2-1.1,3.2l-4.5,0.1c0,0-2.4-0.3-2.5,0c-0.1,0.3-1.2,1-1.7,1
	s-4.4-0.3-4.7,0.2c-0.3,0.5-2.1,2.1-0.9,2.1c1.2,0,2.5,0.5,3.7,0.2c0.2-0.1,0.5-0.1,0.8-0.1c-0.2,0.9-0.3,2.1,0.2,2.1
	c0.8,0,4.8,0,5.1-0.5c0.1-0.2,1.2-1.3,2.3-2.4l1.8-0.6c0,0,0.1,0,0.1,0c-0.1,1.2,0.2,2.2,0.9,3c2.4,0,5.3,0.3,8.5,0.6
	c-0.5,0.2-1,0.4-1.5,0.5c-1.4,0.3-3.4,1.1-3.4,1.6c0,0.5-0.5,2.8,0.2,2.8c0.6,0,4.5,1,4.5,0c0-3-1.1-2.7,0.2-2.8
	c1.3-0.1,3.1-0.4,3.5-0.4c0.4,0,2.7-0.9,3.1-0.9c0.3,0,0.7,0,1,0.1c-0.5,2.3-3.6,4.2-3.6,4.6c0,0.4-3.3,2,1,1.3
	c4.3-0.7,7.2-1.2,7.2-2.9c0-1.2,0-2.2,0-2.7c3,0.3,7.1,0.3,9.7-0.4c0.7,3.1-8.9,1.5-10.4,6.7c2.8-0.4,7.4-0.4,10.3,0.5
	c-1.9,0.6-5.3,1.6-5.6,1.8c-0.4,0.2-2.2,0.5-2.9,0.8c-0.7,0.3-3.7,0.7-0.3,1.1c3.4,0.4,5.6,0.1,5.9-0.2c0.1-0.1,0.4-0.3,0.7-0.6
	c-0.5,2.3-3.5,2-5.3,2.9c-0.9-0.1-1.9-0.3-2.1-0.3c-0.3,0-2.6,0.3-2.6,0.3s-1.5,0-1.8,0c-0.3,0-1.4,2-1.4,2s4.9,0,5.5,0
	c0.2,0,0.6,0,1.1,0c1.9,0.8,3.6,1.7,4.8,3.2c-1.3,0.2-3,0-4.3,0.1l-0.1-0.1c0,0-2.8,0.1-3.1,0.1c-0.3,0-3.6,0.4-3.6,0.4
	s2.4,1.9,4,1.5c0.3-0.1,0.6-0.1,0.8-0.2c1.1,0.7,1.8,1.3,2.3,1.9c-1.8,0.1-4.4,0.5-4.4,0.5l-6.4,1c1.2,0.8,2.6,1,3.4,1.1
	c0.8,0.1,4.7,0.8,4.9,0.4c0.3-0.4,1-1.1,1.4-1.2c0.2-0.1,0.8,0.4,1.4,0.2c-0.4,0.9-1.4,1.6-2.5,2.2l-21.8,0.2l-0.4,1.4l21.8,0.4
	c-1.3,1.6-1.4,2.3-0.9,2.6l-2.3,1c0,0-1.1-0.1-1.5-0.1c-0.4,0-1.8,1.1-1.8,1.1s0.5,2.1,1.6,2.1c1.1,0,3.7-0.5,3.7-0.5l0.4,0.7
	c0,0,4.2,1.8,4.2,0.3c0-1.5,0-2.5,0.5-2.7c0.5-0.3,2.5-1,2.5-1c-1.3,3.4-0.9,5.5-1.5,7c-0.7,0-1.4-0.1-1.7-0.1
	c-0.8,0-4.1-1.2-3.7-0.3c0.4,1,3.7,1.5,3.7,1.5l1.2-0.3c-0.7,0.8-2,1.4-4.4,1.9c0,0,0.1,0,0.1,0c-1.1,0.5-4.7,0.4-4.5,0.8
	c0.1,0.4,3.8,1,4.5,1c0.7,0,3.3,0,3.3,0c0.2,0,0.4-0.7,0.4-0.9c3,0.1,6.7-0.4,9.4,2.4c-3.6,0.8-9.8-1.2-13-0.1
	c-7.5-0.1-18.7-0.4-20-0.4c-2.1,0-11.3,0-11.3,0l6.2,2.1c0,0,4.3-0.5,6.6-0.7c2.3-0.2,12.9,0.9,14.2,0.9c0.5,0,2.2,0.2,4,0.5
	c5.5,2.8-6.3-0.6-6.3,4.3c8.9-2.4,4.6,8.5,9.9,9.9c-4.1-0.2-8-0.3-8.2,3.3c3.2,0.1,6.7,0.5,9.8,1c-1.1,0.2-2.1,0.3-2.4,0.4
	c-0.6,0.1-3.3-0.2-2.7,0.2c0.6,0.4,2.2,2.3,4.3,1.6c2.2-0.6,4.4-1.1,4.4-1.1l-0.4-0.5c3.1,0.6,5.6,1.3,6.6,1.7
	c-4.1,3.2-5.8-1.6-8.2,3.3c0.4,1.1,0.6,2,0.9,2.8c-0.4-0.1-0.8,0-1.4,0.1c-2.7,0.8-3.5,1.1-3.5,1.1l-0.9-0.5c0,0-0.1-3.3-1-3.4
	l-1.3,2l-4.2,1.2h-1.7c0,0-4.8-1.3-4.1,0c0.7,1.3,5,2.3,5,2.3s0.8,0.2,0.8,0.5c0,0.3,1.7,1.3,1.7,1.3s2.7,0.2,3,0.2
	c0.3,0,2.6-0.3,3.1-0.3c0.4,0,3.6,0,5.5,0c0.3,1,0.8,1.5,1.5,2.2l-5.7,0.3l-6.3,0.3c0,0-2.6-0.3-0.4,0.6c2.2,0.8,7.5,1.1,7.5,1.1
	s2.8-1.2,3.2-1.3c0.4-0.1,2-0.1,2.4-0.3c0.1,0,0.1-0.1,0.2-0.2c0.6,0.5,1.3,0.9,2.3,1.5c-6-0.8-4.4,0.5-2.9,2l-1.3,0.1
	c0,0-6-0.5-5.1,0.3c0.5,0.5,2.8,1.9,4.6,2.6c-0.1,0-0.1,0-0.2,0c0.1,0.9,0.4,1.6,0.8,2.3c-1.5,0.2-3.9,0.4-4.4,0.5
	c-0.7,0.1-3.4-0.7-2.8,0.1c0.6,0.8,4.7,2.1,5,1.8c0.3-0.2-0.8-0.7,1.5-0.5c1.1,0.1,2,0.3,2.7,0.4c0.8,0.7,1.7,1.3,2.4,2.3h-3.6l-7,0
	c0,0,0.4,1.6,0.8,1.7c0.4,0.1,2,0.4,3,0.1c1-0.3,3.5-0.5,4.6-0.6c1.1-0.1,2.8-0.1,2.8-0.1l0.1-0.2c0.2,0.3,0.3,0.7,0.4,1.1
	c-2.3,0-5.6,0.1-6.1,0.2c-0.7,0.2-6.8,1.4-7.1,1.4c-0.3,0-8.7-0.5-8.7-0.5h-2.6c0,0-0.7,2.1,1.3,1.8c2.1-0.3,5.7-0.2,6.2-0.4
	c0.4-0.2,2.5-0.3,2.9-0.3c0.4,0,5.7,0.3,5.7,0.3s3.4-0.7,3.7-0.7c0.3,0,4.1-0.3,4.1-0.3l0.8,0.1c0,0.4,0,0.7-0.1,1.1
	c-0.1,0.2-0.2,0.4-0.2,0.7c-0.5,0-1.1,0-1.2,0c-0.3,0-3.6,0.1-3.6,0.1s-1.1-0.2-0.5,0.4c0.6,0.6,1.4,1.5,2.1,1.7
	c0.5,0.2,1.8,0.5,2.3,0.6c-0.3,1.2-0.6,1.9-0.9,2.9h-0.1c0,0-2-0.2-3.7-1.4c-1.7-1.2-1.3,0.7-2.9,1.2c-1.5,0.5-1.8,0.4-2,0.7
	c-0.1,0.3,0.8,0.5,0.8,0.5h6.6l0.3,0.9c-0.4,0.6-1,1.1-1.7,2.1c-1.9,0-5.1,0-5.1,0H123c0,0-2.6-0.1-1.8,0.6c0.7,0.6,3.9,1.8,3.9,1.8
	s1.2,0.3,2.1-0.4c0.8-0.7,4.2-0.9,4.2-0.9h1.3c1,1,1.5,1.2,1.5,2c-0.1,0-0.2,0-0.2,0.1c-0.3,0.1-3,0.9-3,0.9l-2,0.9l-5.3,1.3
	c0,0-1.3,0.3,0,0.4c1.3,0.1,5.5,0.3,6,0.1c0.4-0.2,0.9-1.2,1.6-1.1c0.3,0,1,0.1,1.7,0.1c-0.9,0.9-2.1,1.7-3.4,1.9
	c1.9,0.3,4.7-0.3,4.9,1.6c0.4,4.7-8.9,2-5.7,5.8c-0.8,0.1-1.8,0.2-2,0.2c-0.4-0.1-2.3-1-2.4-1.3c-0.1-0.3-0.5-0.9-0.5-0.9
	s-0.7-1.5-2.1-0.4c-1.3,1.1-3.1,0.4-2.1,2.1c1,1.6,3.2,3,3.6,2.7c0.4-0.3,1-0.8,1.4-0.8c0.4,0,2.3,0.1,2.3,0.1l2.1,0.6l0.8-0.2
	c2,5.3,4.3-5.2,6.2,2.1c-4.4,3.7-15.6,0.1-22.5,1.3c-0.2,0-0.4-0.5-0.5-0.5h-6.6c0,0-8.1,0-8.5,0c-0.4,0-4.7,0-4.7,0
	s-0.8,1.6-1.2,1.6c-0.4,0-7.4,0.3-7.4,0.3s-1.4,1.6-1,1.6l11.9,0.3l1-1.1l4.5-0.1c0,0-3.7,1.2,0,1.8c3.7,0.5,4.8-0.6,4.8-0.6
	l0.4-1.4l3.3,0.1c0,0,0,0-0.1,0c0.9,0.3,1.9,0.5,2.9,0.6l1.8,1.2l2.7,1.3c0,0,2.5-0.9,2.5-1.3c0-0.1-0.1-0.3-0.2-0.6
	c4,0.2,8,0.2,10.6,0.9c-0.4,0.2-1.3,0.6-1.3,0.9c0,0.4-0.6,1.2-1.1,1.6c-0.5,0.3-2.6,1.3-2.6,1.3s-3.1,0.2-0.8,0.2
	c2.3,0,6.1-0.4,6.4-0.4c0.2,0,1.4,0.3,2.3,0.5c0,0.1-0.1,0.2-0.1,0.3c0.3,0,0.5-0.1,0.7-0.2c0.3,0.1,0.6,0.1,0.6,0.1h2
	c0,0,3.2-0.8,1.7-2.1c-0.1-0.1-0.3-0.2-0.4-0.3c1.4-0.9,2.5-1,3.6,2.5c-6.6,1.4-17,2.9-24.5,6c-0.2-0.1-1-0.9-1.7-3.3
	c-0.8-2.6-1.8-1-6-1.5c-4.2-0.5-1.8,1.1-2.5,1.8c-0.7,0.7-1.4,2.9-1.4,2.9s-4.1-0.7-4.5-0.7c-0.4,0-2.7,0.4-2.7,0.4l-0.4,1.1
	c0,0-2.2-0.7-5.6,0.4c-3.4,1.1,0.3,3.7,0.3,3.7l24.1,0.4c8.9,1,20.6-0.8,29,0.7c-0.6,0.2-1.2,0.5-1.8,0.5c-1.2,0.1-2.3,1.1-2.3,1.1
	s1.6,1.4,2.2,0.8c0.5-0.5,2.7-1.6,2.7-1.6l0.2-0.6c1.2,0.3,2.3,0.6,3.2,1c3.2,0.4,5.7,1.5,7.3,2.8c-0.1,0.8-0.3,1.7-0.4,2.3
	c-0.1,1.1-8.6-0.3-8.6-0.3h-3.7l-11.1,0.9l26.2,0.1c0,0.1,0.1-0.1,0.1-0.1c1.6,0,3.3,0,4.9,0h1.6h254.5l-1.6-31h-14.7h-4.9h-59.1
	h-26.3c-9.6,0-16.6-6.5-16.6-15.9V121.4c0-3.6,3.1-6,6.8-6h36.1c3.6,0,6.1,2.4,6.1,6v100h47v-100c0-3.6,2.4-6,6-6H435
	c3.6,0,6.9,2.4,6.9,6v108h12.8c4.9,0,10.8,3.8,9.9,11.3l-3.2,55.7h13c0,0,28.9-2.9,32.2-29.8c2-16.6,8.4-66.8,8.4-66.8
	c2.3-19.9,7.2-31.1,23.2-28c20.2,3.9,44.1,15,82.7,11.7c30.1-2.6,50.3-6.4,60.7-15.7c4.8-4,7.4-8.5,7.4-13.9
	C689,146.9,684.1,140.8,676.7,137.2z M123.9,25.3l-0.3-0.1c0.4-0.1,0.7-0.1,1.1-0.2C124.5,25.1,124.2,25.2,123.9,25.3z M102.5,133.9
	c-0.1,0-0.3,0-0.4,0c0.2-0.2,0.3-0.3,0.5-0.5C102.5,133.6,102.5,133.8,102.5,133.9z M118,121.4c3.4-0.9,6-0.9,8.1-0.5l-4.8,1.6
	l-3.9,2C117.7,123.6,118.1,122.7,118,121.4z M134.5,151c-3.2,0-0.1-2.2-0.3-3.1c0.3-0.2,0.6-0.4,0.9-0.6
	C136.3,148.1,136.5,149.3,134.5,151z M138.5,126.9c-0.9,0-2.2,0-2.6,0c-0.6,0.1-2.3-0.5-1.7,0.3c0.4,0.7,1.1,1.5,1.4,1.8
	c-0.3,0.2-0.7,0.4-1,0.6c-0.5-0.4-1.2-0.5-2.2-0.2c0,0-3,0.1-3.3,0.2c-0.3,0.1-1.4,0-1.5,0.3s-0.8,1.4,0.4,1.7c1,0.2,1.8,0,2.4,0.2
	c-2.6,1.1-5.3,2-8.1,2.6c1-2.4,0.8-5.4,0.8-5.4s-5.3-2.1-4.3-0.2c1,1.8,2,1.8,1.3,2.9c-0.6,1-0.7,1.6-2,2.1
	c-1.2,0.4-4.5,0.8-4.5,0.8s-1.3-0.1-1.4,0.6c-1.9-0.1-3.8-0.3-5.7-0.7c1.5-2.9,5.1-3.6,9.9-3.3c-0.6-2.4-0.2-3.8,0.3-5.1
	c1-0.6,2.7-1.5,3.4-1.8c0.7-0.3,5.3-1.9,7.9-2.9c0.7,0.3,1.4,0.6,2,0.9c-0.8,0.3-1.7,0.5-2.2,0.6c-1.3,0.2-3.7,0.5-3.1,0.9
	c0.6,0.4,3.6,1.4,4,1.3c0.4-0.1,0.7-0.1,1.8-0.5c0.7-0.3,1.5-0.5,2.3-0.7c2.2,1.3,4.5,2.1,8.2,0.5
	C140.2,125.5,139.4,126.2,138.5,126.9z M364.9,75.4c0,3.6-3.4,6-7.1,6h-78.4c-3.2,0-7.1,1.2-10.8,4c-1.3,0.9-3.5,3-4.7,5.5
	c-2.1,4.5-2.1,14.1-2.1,14.1v152.7c0,3.6-2.2,6.7-5.9,6.7h-37.8c-3.6,0-7.4-3-7.4-6.7c0,0,0.4-152.9,0.4-152.9
	c0-8.3,1.1-33.9,12.7-46.4c11.6-12.6,21.8-18.9,43.3-19c0.1,0,90.6,0,90.6,0c3.6,0,7.1,2.9,7.1,6.5V75.4z M660.7,162.9
	c-4.8,0-8.7-3.9-8.7-8.7c0-4.8,3.9-8.7,8.7-8.7c4.8,0,8.7,3.9,8.7,8.7C669.4,159.1,665.5,162.9,660.7,162.9z"/>
<g>
	<path class="st0" d="M154.9,333.3v-9.5H152v9.5h-4.5v-22.9h4.5v9.1h2.9v-9.1h4.5v22.9H154.9z"/>
	<path class="st0" d="M170.7,328.9h-3.4l-0.7,4.5h-4.7l4.3-22.9h5.5l4.4,22.9h-4.7L170.7,328.9z M168.4,321l-0.5,3.6h2.1l-0.4-3.6
		l-0.5-4.6h-0.2L168.4,321z"/>
	<path class="st0" d="M184,321.4l2.4-10.9h4.1l-4.6,17.8c-0.3,1.2-0.7,2.2-1,2.9c-0.4,0.7-0.8,1.2-1.3,1.6c-0.5,0.4-1,0.6-1.5,0.7
		c-0.5,0.1-1.1,0.2-1.7,0.2h-1.3v-3.6h0.5c0.6,0,1.1-0.1,1.3-0.4c0.3-0.3,0.5-0.6,0.8-1.1c0-0.1,0.1-0.2,0.1-0.4
		c0.1-0.2,0.1-0.3,0.1-0.5l-4.7-17.1h4.4l2.2,10.9H184z"/>
	<path class="st0" d="M197,310.5v8.3c0,0.8,0.1,1.3,0.4,1.5c0.3,0.2,0.6,0.3,1,0.3c0.2,0,0.4,0,0.7-0.1c0.2-0.1,0.4-0.2,0.7-0.3
		v-9.7h4.5v22.9h-4.5v-8.9c-0.8,0.2-1.6,0.3-2.3,0.3c-1.6,0-2.9-0.4-3.7-1.2c-0.8-0.8-1.2-2.1-1.2-4v-9.1H197z"/>
	<path class="st0" d="M215.5,333.3v-9.5h-2.9v9.5h-4.5v-22.9h4.5v9.1h2.9v-9.1h4.5v22.9H215.5z"/>
	<path class="st0" d="M235.4,327.8c0,2-0.5,3.4-1.5,4.4c-1,0.9-2.4,1.4-4.4,1.4c-3.9,0-5.8-1.9-5.8-5.8V316c0-2,0.5-3.4,1.5-4.4
		c1-0.9,2.5-1.4,4.3-1.4c2,0,3.5,0.5,4.4,1.4c1,0.9,1.4,2.4,1.4,4.4V327.8z M230.9,315.9c0-0.5-0.1-0.9-0.4-1.1
		c-0.3-0.2-0.6-0.3-0.9-0.3c-0.4,0-0.7,0.1-1,0.3c-0.3,0.2-0.4,0.6-0.4,1.1V328c0,0.5,0.1,0.9,0.4,1.1c0.3,0.2,0.6,0.3,1,0.3
		c0.4,0,0.7-0.1,0.9-0.3c0.3-0.2,0.4-0.6,0.4-1.1V315.9z"/>
	<path class="st0" d="M239.1,326.2v-3.9h9.7v3.9H239.1z"/>
	<path class="st0" d="M259.3,333.3v-18.5h-2.4v18.5h-4.5v-22.9h11.3v22.9H259.3z"/>
	<path class="st0" d="M273.2,310.5c1,0,1.8,0.1,2.6,0.3c0.8,0.2,1.4,0.6,2,1.2c0.6,0.5,1,1.3,1.3,2.2c0.3,0.9,0.5,2,0.5,3.4
		c0,2.3-0.5,4.2-1.5,5.5c-1,1.3-2.6,2-4.8,2h-1.1v8.4h-4.5v-22.9H273.2z M272.2,314.8v5.9h0.8c0.3,0,0.6,0,0.8-0.1
		c0.3-0.1,0.5-0.2,0.7-0.5c0.2-0.2,0.4-0.6,0.5-1c0.1-0.4,0.2-1,0.2-1.6c0-1-0.2-1.7-0.6-2.1c-0.4-0.4-0.9-0.6-1.6-0.6H272.2z"/>
	<path class="st0" d="M293.9,327.8c0,2-0.5,3.4-1.5,4.4c-1,0.9-2.4,1.4-4.4,1.4c-3.9,0-5.8-1.9-5.8-5.8V316c0-2,0.5-3.4,1.5-4.4
		c1-0.9,2.5-1.4,4.3-1.4c2,0,3.5,0.5,4.4,1.4c1,0.9,1.4,2.4,1.4,4.4V327.8z M289.4,315.9c0-0.5-0.1-0.9-0.4-1.1
		c-0.3-0.2-0.6-0.3-0.9-0.3c-0.4,0-0.7,0.1-1,0.3c-0.3,0.2-0.4,0.6-0.4,1.1V328c0,0.5,0.1,0.9,0.4,1.1c0.3,0.2,0.6,0.3,1,0.3
		c0.4,0,0.7-0.1,0.9-0.3c0.3-0.2,0.4-0.6,0.4-1.1V315.9z"/>
	<path class="st0" d="M305.5,321.4l-3.5,12h-4.4v-22.9h4.4v12.1h0.1l3.5-12.1h4.5v22.9h-4.5L305.5,321.4L305.5,321.4z"/>
	<path class="st0" d="M318,326.9c0,0.8,0.2,1.4,0.4,1.7c0.3,0.3,0.6,0.5,1.1,0.5c0.5,0,0.9-0.3,1.1-0.8c0.2-0.6,0.3-1.2,0.3-1.9
		c0-0.6,0-1.1-0.1-1.5c-0.1-0.4-0.2-0.7-0.3-0.9c-0.1-0.2-0.3-0.4-0.5-0.4c-0.2-0.1-0.4-0.1-0.6-0.1h-1.2v-3.7h1.3
		c0.4,0,0.8-0.2,1.1-0.7c0.3-0.5,0.4-1.2,0.4-2.2c0-0.2,0-0.3-0.1-0.6c0-0.2-0.1-0.5-0.2-0.7c-0.1-0.2-0.3-0.4-0.4-0.5
		c-0.2-0.2-0.4-0.2-0.7-0.2c-0.5,0-0.9,0.2-1.1,0.6c-0.3,0.4-0.4,0.9-0.4,1.6l-4.3-1c0.2-1.7,0.8-3.1,1.8-4.1c1-1,2.4-1.5,4.2-1.5
		c1,0,1.9,0.2,2.6,0.5c0.7,0.3,1.3,0.8,1.8,1.3c0.5,0.6,0.8,1.2,1,2c0.2,0.8,0.3,1.6,0.3,2.5c0,0.3,0,0.7-0.1,1.2
		c0,0.5-0.1,0.9-0.3,1.4c-0.1,0.5-0.3,0.9-0.6,1.3c-0.3,0.4-0.6,0.7-1,1v0.1c0.7,0.3,1.2,0.9,1.6,1.8c0.3,0.9,0.5,1.9,0.5,3.2
		c0,1.2-0.1,2.3-0.4,3.2c-0.3,0.9-0.7,1.6-1.2,2.2c-0.5,0.6-1.2,1-1.9,1.2c-0.7,0.3-1.6,0.4-2.5,0.4c-1.9,0-3.3-0.5-4.3-1.6
		c-1-1.1-1.5-2.4-1.6-4.2L318,326.9z"/>
	<path class="st0" d="M337.3,321.4c0.5,0.2,1,0.4,1.3,0.8c0.3,0.3,0.6,0.7,0.8,1.1c0.2,0.4,0.4,0.9,0.4,1.4c0.1,0.5,0.1,1,0.1,1.5
		c0,2.5-0.5,4.3-1.6,5.4c-1.1,1.1-2.7,1.7-4.8,1.7h-5.1v-22.9h5.2c2,0,3.6,0.5,4.6,1.6c1,1.1,1.5,2.7,1.5,4.8c0,0.5,0,0.9-0.1,1.4
		c-0.1,0.4-0.2,0.9-0.4,1.3c-0.2,0.4-0.5,0.7-0.8,1.1c-0.3,0.3-0.7,0.5-1.1,0.7V321.4z M335.5,317c0-0.9-0.2-1.5-0.5-1.8
		c-0.3-0.3-0.9-0.4-1.6-0.4H333v4.5h0.6C334.8,319.3,335.5,318.5,335.5,317z M335.7,325.9c0-0.9-0.2-1.6-0.5-1.9
		c-0.3-0.4-0.8-0.6-1.4-0.6H333v5.6h0.8c0.4,0,0.8-0.1,1-0.2c0.3-0.2,0.4-0.4,0.6-0.7c0.1-0.3,0.2-0.6,0.3-1
		C335.7,326.8,335.7,326.4,335.7,325.9z"/>
	<path class="st0" d="M355.3,327.8c0,2-0.5,3.4-1.5,4.4c-1,0.9-2.4,1.4-4.4,1.4c-3.9,0-5.8-1.9-5.8-5.8V316c0-2,0.5-3.4,1.5-4.4
		c1-0.9,2.5-1.4,4.3-1.4c2,0,3.5,0.5,4.4,1.4c1,0.9,1.4,2.4,1.4,4.4V327.8z M350.7,315.9c0-0.5-0.1-0.9-0.4-1.1
		c-0.3-0.2-0.6-0.3-0.9-0.3c-0.4,0-0.7,0.1-1,0.3c-0.3,0.2-0.4,0.6-0.4,1.1V328c0,0.5,0.1,0.9,0.4,1.1c0.3,0.2,0.6,0.3,1,0.3
		c0.4,0,0.7-0.1,0.9-0.3c0.3-0.2,0.4-0.6,0.4-1.1V315.9z"/>
	<path class="st0" d="M361.4,333.3v4.3h-3.7v-8.2l1.4-0.3c0.7-0.8,1.1-1.6,1.3-2.5c0.2-0.9,0.3-1.8,0.3-2.7l0.5-13.4h10.6v18.7h1.7
		v8.5H370v-4.3H361.4z M364.8,324.3c0,1-0.1,1.9-0.3,2.8c-0.2,0.9-0.4,1.5-0.7,2.1h3.7v-14.4h-2.4L364.8,324.3z"/>
	<path class="st0" d="M382.6,310.3c2,0,3.5,0.5,4.4,1.5c1,1,1.4,2.2,1.4,3.8c0,0.1,0,0.2,0,0.3c0,0.1,0,0.2,0,0.3l-4.3,0.8
		c0-0.7-0.2-1.2-0.4-1.7c-0.3-0.4-0.6-0.7-1.1-0.7c-0.3,0-0.5,0.1-0.7,0.2c-0.2,0.1-0.3,0.3-0.4,0.4c-0.1,0.2-0.2,0.4-0.2,0.6
		c0,0.2-0.1,0.4-0.1,0.5V328c0,0.3,0.1,0.6,0.2,0.9c0.2,0.3,0.5,0.4,1.1,0.4c0.4,0,0.8-0.2,1.1-0.6c0.3-0.4,0.4-1,0.4-1.8l4.4,0.6
		c0,1.8-0.5,3.3-1.5,4.4c-1,1.1-2.4,1.7-4.3,1.7c-2.1,0-3.6-0.5-4.5-1.4c-0.9-1-1.4-2.4-1.4-4.3v-11.5c0-1.8,0.5-3.3,1.5-4.4
		C379.1,310.8,380.6,310.3,382.6,310.3z"/>
	<path class="st0" d="M397.9,314.8v18.6h-4.5v-18.6H390v-4.3h11.5v4.3H397.9z"/>
	<path class="st0" d="M412.8,321.4c0.5,0.2,1,0.4,1.3,0.8c0.3,0.3,0.6,0.7,0.8,1.1c0.2,0.4,0.4,0.9,0.4,1.4c0.1,0.5,0.1,1,0.1,1.5
		c0,2.5-0.5,4.3-1.6,5.4c-1.1,1.1-2.7,1.7-4.8,1.7H404v-22.9h5.2c2,0,3.6,0.5,4.6,1.6c1,1.1,1.5,2.7,1.5,4.8c0,0.5,0,0.9-0.1,1.4
		c-0.1,0.4-0.2,0.9-0.4,1.3c-0.2,0.4-0.5,0.7-0.8,1.1c-0.3,0.3-0.7,0.5-1.1,0.7V321.4z M411,317c0-0.9-0.2-1.5-0.5-1.8
		c-0.3-0.3-0.9-0.4-1.6-0.4h-0.5v4.5h0.6C410.3,319.3,411,318.5,411,317z M411.2,325.9c0-0.9-0.2-1.6-0.5-1.9
		c-0.3-0.4-0.8-0.6-1.4-0.6h-0.8v5.6h0.8c0.4,0,0.8-0.1,1-0.2c0.3-0.2,0.4-0.4,0.6-0.7c0.1-0.3,0.2-0.6,0.3-1
		C411.2,326.8,411.2,326.4,411.2,325.9z"/>
	<path class="st0" d="M419.3,333.3v-22.9h10.5v4.3h-6v4.9h5.3v4.3h-5.3v5.2h6v4.3H419.3z"/>
	<path class="st0" d="M440.2,333.3v-9.5h-2.9v9.5h-4.5v-22.9h4.5v9.1h2.9v-9.1h4.5v22.9H440.2z"/>
	<path class="st0" d="M455.9,333.3v-9.5h-2.9v9.5h-4.5v-22.9h4.5v9.1h2.9v-9.1h4.5v22.9H455.9z"/>
	<path class="st0" d="M475.8,327.8c0,2-0.5,3.4-1.5,4.4c-1,0.9-2.4,1.4-4.4,1.4c-3.9,0-5.8-1.9-5.8-5.8V316c0-2,0.5-3.4,1.5-4.4
		c1-0.9,2.5-1.4,4.3-1.4c2,0,3.5,0.5,4.4,1.4c1,0.9,1.4,2.4,1.4,4.4V327.8z M471.3,315.9c0-0.5-0.1-0.9-0.4-1.1
		c-0.3-0.2-0.6-0.3-0.9-0.3c-0.4,0-0.7,0.1-1,0.3c-0.3,0.2-0.4,0.6-0.4,1.1V328c0,0.5,0.1,0.9,0.4,1.1c0.3,0.2,0.6,0.3,1,0.3
		c0.4,0,0.7-0.1,0.9-0.3c0.3-0.2,0.4-0.6,0.4-1.1V315.9z"/>
	<path class="st0" d="M479.6,333.3v-22.9h10.5v4.3h-6v4.9h5.3v4.3h-5.3v5.2h6v4.3H479.6z"/>
	<path class="st0" d="M154.4,369.5V351H152v18.5h-4.5v-22.9h11.3v22.9H154.4z"/>
	<path class="st0" d="M168.3,346.6c1,0,1.8,0.1,2.6,0.3c0.8,0.2,1.4,0.6,2,1.2c0.6,0.5,1,1.3,1.3,2.2c0.3,0.9,0.5,2,0.5,3.4
		c0,2.3-0.5,4.2-1.5,5.5c-1,1.3-2.6,2-4.8,2h-1.1v8.4h-4.5v-22.9H168.3z M167.3,350.9v5.9h0.8c0.3,0,0.6,0,0.8-0.1
		c0.3-0.1,0.5-0.2,0.7-0.5c0.2-0.2,0.4-0.6,0.5-1c0.1-0.4,0.2-1,0.2-1.6c0-1-0.2-1.7-0.6-2.1c-0.4-0.4-0.9-0.6-1.6-0.6H167.3z"/>
	<path class="st0" d="M177.6,369.5v-22.9H188v4.3h-6v4.9h5.3v4.3H182v5.2h6v4.3H177.6z"/>
	<path class="st0" d="M193.5,369.5v4.3h-3.7v-8.2l1.4-0.3c0.7-0.8,1.1-1.6,1.3-2.5c0.2-0.9,0.3-1.8,0.3-2.7l0.5-13.4H204v18.7h1.7
		v8.5h-3.7v-4.3H193.5z M196.9,360.5c0,1-0.1,1.9-0.3,2.8c-0.2,0.9-0.4,1.5-0.7,2.1h3.7v-14.4h-2.4L196.9,360.5z"/>
	<path class="st0" d="M215.7,369.5V351h-2.4v18.5h-4.5v-22.9h11.3v22.9H215.7z"/>
	<path class="st0" d="M229.6,346.6c1,0,1.8,0.1,2.6,0.3c0.8,0.2,1.4,0.6,2,1.2c0.6,0.5,1,1.3,1.3,2.2c0.3,0.9,0.5,2,0.5,3.4
		c0,2.3-0.5,4.2-1.5,5.5c-1,1.3-2.6,2-4.8,2h-1.1v8.4h-4.5v-22.9H229.6z M228.7,350.9v5.9h0.8c0.3,0,0.6,0,0.8-0.1
		c0.3-0.1,0.5-0.2,0.7-0.5c0.2-0.2,0.4-0.6,0.5-1c0.1-0.4,0.2-1,0.2-1.6c0-1-0.2-1.7-0.6-2.1c-0.4-0.4-0.9-0.6-1.6-0.6H228.7z"/>
	<path class="st0" d="M246.6,357.5l-3.5,12h-4.4v-22.9h4.4v12.1h0.1l3.5-12.1h4.5v22.9h-4.5L246.6,357.5L246.6,357.5z"/>
	<path class="st0" d="M254.1,369.5l1.2-7.4c0.1-0.7,0.3-1.3,0.7-1.9c0.3-0.6,0.8-1,1.3-1.3c-1-0.5-1.6-1.2-2-2.1
		c-0.4-0.9-0.6-2-0.6-3.3c0-1.1,0.2-2.1,0.5-3c0.3-0.9,0.8-1.6,1.4-2.2c0.6-0.6,1.3-1,2.1-1.3c0.8-0.3,1.7-0.4,2.6-0.4h5.4v22.9
		h-4.5v-9.3h-0.5c-0.6,0-1.1,0.3-1.4,0.9c-0.3,0.6-0.6,1.3-0.7,2.2l-1,6.3H254.1z M261.4,350.9c-0.8,0-1.4,0.2-1.8,0.7
		c-0.4,0.5-0.6,1.1-0.6,2c0,0.5,0.1,0.9,0.2,1.2c0.2,0.3,0.3,0.5,0.6,0.7c0.2,0.2,0.5,0.3,0.8,0.3c0.3,0,0.6,0.1,0.9,0.1h0.7v-5.1
		H261.4z"/>
	<path class="st0" d="M277,350.9v18.6h-4.5v-18.6H269v-4.3h11.5v4.3H277z"/>
	<path class="st0" d="M290.8,357.5l-3.5,12h-4.4v-22.9h4.4v12.1h0.1l3.5-12.1h4.5v22.9h-4.5L290.8,357.5L290.8,357.5z"/>
	<path class="st0" d="M299.1,369.5v-22.9h10.5v4.3h-6v4.9h5.3v4.3h-5.3v5.2h6v4.3H299.1z"/>
</g>
</svg>
