<?xml version="1.0" encoding="UTF-8" standalone="no"?>
<!-- Created with Inkscape (http://www.inkscape.org/) -->

<svg
   xmlns:dc="http://purl.org/dc/elements/1.1/"
   xmlns:cc="http://creativecommons.org/ns#"
   xmlns:rdf="http://www.w3.org/1999/02/22-rdf-syntax-ns#"
   xmlns:svg="http://www.w3.org/2000/svg"
   xmlns="http://www.w3.org/2000/svg"
   xmlns:sodipodi="http://sodipodi.sourceforge.net/DTD/sodipodi-0.dtd"
   xmlns:inkscape="http://www.inkscape.org/namespaces/inkscape"
   width="144mm"
   height="64mm"
   viewBox="0 0 0 350.78743"
   id="svg15542"
   version="1.1"
   inkscape:version="0.91 r13725"
   sodipodi:docname="logo1.svg">
  <defs
     id="defs15544" />
  <sodipodi:namedview
     id="base"
     pagecolor="#ffffff"
     bordercolor="#666666"
     borderopacity="1.0"
     inkscape:pageopacity="0.0"
     inkscape:pageshadow="2"
     inkscape:zoom="0.35"
     inkscape:cx="-30277.751"
     inkscape:cy="634.28571"
     inkscape:document-units="px"
     inkscape:current-layer="layer1"
     showgrid="false"
     inkscape:window-width="1366"
     inkscape:window-height="706"
     inkscape:window-x="1432"
     inkscape:window-y="-8"
     inkscape:window-maximized="1" />
  <metadata
     id="metadata15547">
    <rdf:RDF>
      <cc:Work
         rdf:about="">
        <dc:format>image/svg+xml</dc:format>
        <dc:type
           rdf:resource="http://purl.org/dc/dcmitype/StillImage" />
        <dc:title></dc:title>
      </cc:Work>
    </rdf:RDF>
  </metadata>
  <g
     inkscape:label="Layer 1"
     inkscape:groupmode="layer"
     id="layer1"
     transform="translate(0,-825.59073)">
    <path
       id="path12666"
       d="m -31096.061,-220.7139 c -3.764,0 -6.816,-3.05175 -6.816,-6.82138 0,-3.7695 3.052,-6.82125 6.816,-6.82125 3.77,0 6.822,3.05175 6.822,6.82125 0,3.76963 -3.052,6.82138 -6.822,6.82138 m -233.457,-68.96001 c 0,2.8565 -2.353,4.53613 -5.21,4.53613 l -61.777,0 c -2.51,0 -5.62,1.05475 -8.506,3.23237 -0.981,0.74225 -2.959,2.42188 -3.892,4.36525 -1.655,3.51563 -1.865,11.15725 -1.865,11.15725 l 0,120.34678 c 0,2.8563 -1.333,4.6483 -4.189,4.6483 l -29.761,0 c -2.861,0 -5.796,-2.0898 -5.796,-4.9511 0,0 0.322,-120.3076 0.327,-120.36623 -0.01,-6.543 0.865,-26.61625 10.005,-36.46975 9.17,-9.8925 17.212,-14.86325 34.082,-14.96087 0.04,0 71.196,0.0387 71.196,0.0387 2.862,0 5.386,2.2705 5.386,5.127 z m -178.017,40.581 c -0.733,-0.02 -1.724,-0.0337 -2.046,0.02 -0.489,0.0775 -1.782,-0.40537 -1.377,0.23925 0.322,0.52238 0.903,1.1865 1.123,1.4355 -0.269,0.17575 -0.542,0.33688 -0.811,0.498 -0.39,-0.28312 -0.947,-0.415 -1.767,-0.15125 0,0 -2.349,0.0775 -2.588,0.16113 -0.244,0.0775 -1.133,0 -1.216,0.24412 -0.08,0.23925 -0.645,1.12788 0.327,1.372 0.786,0.20025 1.455,0.0387 1.9,0.14163 -2.022,0.90337 -4.151,1.58687 -6.353,2.03612 0.815,-1.87012 0.649,-4.27737 0.649,-4.27737 0,0 -4.204,-1.621 -3.398,-0.16113 0.811,1.45025 1.538,1.45025 1.055,2.26075 -0.489,0.81063 -0.567,1.294 -1.538,1.61625 -0.972,0.32225 -3.56,0.64938 -3.56,0.64938 0,0 -0.996,-0.0537 -1.084,0.48837 -1.499,-0.0875 -2.998,-0.26375 -4.497,-0.57137 1.191,-2.25588 4.048,-2.85638 7.769,-2.58788 -0.445,-1.86525 -0.171,-3.01762 0.234,-4.03812 0.825,-0.454 2.139,-1.167 2.676,-1.37688 0.576,-0.23437 4.184,-1.52837 6.215,-2.25587 0.567,0.21975 1.099,0.46875 1.587,0.74212 -0.654,0.20513 -1.323,0.3955 -1.738,0.459 -1.05,0.16113 -2.91,0.40525 -2.427,0.72763 0.489,0.32712 2.832,1.13275 3.155,1.04975 0.322,-0.0775 0.566,-0.0775 1.455,-0.40038 0.552,-0.20025 1.211,-0.39062 1.792,-0.51275 1.753,0.99613 3.525,1.626 6.46,0.42975 -0.635,0.625 -1.309,1.206 -1.997,1.76263 m -3.179,18.9405 c -2.515,-0.0125 -0.08,-1.69437 -0.215,-2.417 0.249,-0.15137 0.483,-0.32225 0.689,-0.503 0.991,0.65438 1.103,1.60163 -0.474,2.92 m -12.94,-23.291 c 2.696,-0.71775 4.717,-0.71775 6.348,-0.36625 l -3.76,1.25487 -3.11,1.57713 c 0.288,-0.70313 0.532,-1.45988 0.522,-2.46575 m -12.28,9.8535 c -0.102,0.0125 -0.215,0.015 -0.327,0.0238 0.137,-0.13188 0.269,-0.249 0.386,-0.36125 -0.02,0.1125 -0.04,0.2245 -0.06,0.33687 m 16.909,-85.57125 -0.205,-0.1175 c 0.283,-0.0538 0.586,-0.1075 0.898,-0.17575 -0.258,0.0925 -0.488,0.19038 -0.693,0.293 m 435.576,88.19325 c -8.657,-5.083 -24.209,-7.89062 -44.028,-9.58 -30.386,-2.583 -49.195,6.14738 -65.137,9.21388 -12.607,2.42188 -16.489,-6.46975 -18.262,-22.1485 0,0 -5.034,-39.78513 -6.63,-52.876 -2.583,-21.17138 -25.376,-23.77875 -25.376,-23.77875 l -322.183,0 c -16.606,0 -19.595,1.10837 -17.9,6.68462 10.029,-0.21487 1.401,-3.667 8.086,-4.209 29.199,-1.13287 44.223,-0.3955 51.723,1.10838 -0.796,0.24412 -1.411,0.42962 -1.553,0.45412 -0.483,0.0825 -4.931,0.16113 -4.931,0.16113 0,0 1.372,1.62112 4.365,0.97162 1.938,-0.41987 4.346,-0.53225 5.869,-0.5615 0.967,0.36625 1.665,0.76175 2.163,1.16213 -4.267,-0.0337 -9.863,-0.0825 -15.141,-0.127 l 7.436,0.9815 8.545,0.15137 c 0.06,0.13175 0.112,0.26363 0.147,0.40038 -1.709,0.0775 -4.454,0.20512 -5.215,0.25875 -0.65,0.0437 -4.449,0.48337 -4.449,0.48337 0,0 0.972,0.72763 2.749,0.6495 1.353,-0.0637 3.721,0.72263 5.142,0.874 -0.273,0.0487 -0.449,0.55663 -0.449,0.55663 l -10.029,0 c -1.456,0 -8.614,-0.39063 -8.614,-0.39063 l -14.438,-1.45512 c -3.799,0.8155 0.727,1.81162 0.727,1.81162 l 2.588,0.0337 3.238,0 3.393,-0.15137 c 0,0 4.531,0.25387 5.015,0.25387 0.488,0 7.119,0.0387 7.119,0.0387 0,0 5.176,0.42963 5.659,0.42963 0.488,0 1.782,0.127 1.782,0.127 l 0.127,0.0538 c -2.431,0.26362 -6.245,0.65425 -7.002,0.65425 -1.133,0 -9.301,-0.32713 -6.064,0.96675 0.234,0.0975 10.757,-0.24413 10.757,-0.24413 l 3.584,0.61525 c -0.06,0.26863 -0.08,0.53225 -0.09,0.78613 -0.293,-0.0688 -0.503,-0.1125 -0.503,-0.1125 0,0 -6.792,0.32712 -8.897,0.32712 l 0.327,1.13275 5.015,0.64463 c 0,0 1.914,-0.0775 3.579,-0.33213 -0.39,0.26863 -1.113,0.41025 -2.446,0.33213 1.333,0.63475 2.031,1.90912 2.368,3.54487 -2.09,-0.0975 -3.867,-0.1855 -3.867,-0.1855 0,0 -1.275,1.15225 -0.786,1.15225 0.4,0 3.247,0.45413 4.863,0.61038 0.04,0.48337 0.06,0.9815 0.06,1.499 l -0.708,-0.17575 -3.311,0.53225 -3.803,0 c 0,0 -3.394,-3.65238 -4.771,-1.1035 -0.293,0.542 3.399,1.75287 3.399,1.75287 0,0 2.548,-0.17087 4.082,-0.0925 1.538,0.0825 3.095,0.1175 3.74,0.19538 0.215,0.0288 0.747,0.0925 1.357,0.1855 -0.01,0.38087 -0.02,0.75687 -0.04,1.15237 -3.217,-0.19537 -5.371,0.664 -6.474,2.583 4.99,0.79588 5.395,1.82613 2.329,3.38863 -0.313,-0.0438 -0.571,-0.0738 -0.708,-0.0738 -0.567,0 -3.56,0.0775 -5.503,0.0775 -1.939,0 -4.771,-0.0775 -5.82,-0.32225 -1.05,-0.24413 -2.911,-0.8105 -4.126,-1.05463 -1.211,-0.23925 -2.266,0.64938 -2.671,0.88863 -0.401,0.249 0.42,1.42087 1.45,1.32812 0.683,-0.0588 1.289,-0.1125 1.382,-0.1125 l 1.538,0.8105 c 0.649,0.0825 4.126,0.56638 5.42,0.56638 1.079,0 5.727,0.27837 9.829,-0.293 3.149,1.4795 6.289,-0.77625 8.53,2.55375 -1.142,3.01275 -5.962,-2.622 -6.435,1.543 -2.154,0.015 -9.424,0.0637 -9.903,0 -0.566,-0.0825 -1.699,-1.86038 -3.076,-1.04988 0,0 -0.322,2.18263 1.782,2.18263 1.577,0 8.042,-0.18063 11.158,-0.27338 0,0.0687 0,0.1225 0,0.19525 2.202,-0.29287 3.203,1.45513 0,1.294 0,0.0588 0,0.1025 0,0.15625 -0.245,-0.025 -0.396,0.55663 -0.396,0.55663 l -2.588,0.46875 -3.481,0 c 0,0 -5.015,-0.88863 -5.904,-0.28325 -0.747,0.51275 3.399,0.28325 5.015,0.28325 l 4.775,0 c 0,0 1.246,0.13675 2.745,0.2295 1.04,1.8555 6.049,-1.3525 7.607,2.44137 -1.128,-0.0925 -1.997,0.0775 -2.632,0.46875 -2.041,-0.15137 -4.424,-0.36612 -4.57,-0.36612 -0.239,0 -1.05,-0.40538 -1.616,0.48825 -0.567,0.88862 0.161,1.21575 -1.455,1.69925 -1.617,0.48337 -4.371,0.32225 -4.771,0.48337 -0.405,0.166 -3.237,1.13763 -0.889,1.94338 2.344,0.8105 7.925,2.18262 8.57,0.48825 0.649,-1.69925 -0.161,-1.94338 0.971,-2.26563 1.133,-0.32712 1.7,-0.32712 1.944,-0.32712 0.06,0 0.283,0.0538 0.576,0.13175 -0.03,0.3565 -0.05,0.73737 -0.01,1.167 1.943,0.86912 2.974,1.11337 3.237,1.90925 -1.177,0.27825 -3.813,0.30275 -4.453,0.5175 -0.727,0.23925 -4.204,0.96687 -2.993,1.128 1.216,0.16112 4.126,0.56637 5.259,0 1.132,-0.56638 1.377,-0.72763 2.104,-0.72763 0.03,0 0.08,0 0.117,0 -0.09,0.5615 -0.317,1.30363 -0.683,2.34375 3.091,2.68063 4.409,-0.84962 6.103,-0.99612 -0.366,0.20012 -0.766,0.13175 -1.25,0.45412 -0.386,0.25388 -2.832,2.53413 -2.832,2.53413 l -3.315,0 c 0,0 -3.076,0.29787 -4.287,0.69825 -1.216,0.41012 -5.581,0.63475 -5.581,0.63475 0,0 -3.721,-1.05463 -3.477,-0.64938 0.239,0.40038 -0.488,1.8945 1.616,1.8945 2.1,0 4.126,-0.22462 4.448,-0.30275 0.323,-0.0825 2.75,-0.80075 4.61,-0.80075 1.86,0 3.882,0.57125 5.659,0 1.65,-0.5225 1.856,-0.293 3.159,-0.63962 -0.405,0.65912 -0.683,1.34275 -0.859,2.0605 -0.928,0.17087 -1.919,0.36137 -2.217,0.36137 -0.649,0 -1.211,-1.04987 -2.266,0.0825 -1.049,1.13275 -2.343,1.86038 -3.393,2.09963 -1.055,0.249 -5.742,0 -3.237,0.249 2.504,0.23925 8.574,1.04975 9.057,0.16112 0.484,-0.8935 -0.727,-1.86525 0.65,-1.78225 0.454,0.025 0.839,0.1175 1.171,0.21488 -0.09,0.9765 -0.07,2.01175 -0.01,3.12012 -0.815,0.19525 -1.586,0.30275 -1.723,0.30275 -0.244,0 -2.51,-0.16112 -2.51,-0.16112 l -2.666,0.24412 c 0,0 -4.209,-0.0825 -1.377,0.8105 0,0 4.37,0.23925 4.771,0.23925 0.263,0 2.143,0.1025 3.598,0.1075 0.01,0.23438 0.03,0.46388 0.04,0.70313 0.03,-0.26863 0.108,-0.4835 0.181,-0.70313 0.679,0 1.23,-0.0288 1.435,-0.1075 0.538,-0.20012 2.017,-0.957 2.5,-1.206 0.381,0.19038 0.748,0.415 1.06,0.72263 -0.933,0.29787 -1.47,0.80075 -1.738,1.44537 -1.69,-0.0687 -3.438,-0.15137 -3.438,-0.15137 0,0 -1.133,0.24412 -1.621,0.80562 -0.483,0.56638 -2.91,0.64938 -1.616,1.13275 0.64,0.24425 1.987,0.542 3.335,0.74225 -1.489,0.45413 -3.579,1.11813 -3.579,1.11813 -0.401,0.166 -2.344,0.81062 -2.666,0.97175 -0.322,0.16112 -1.455,0.40525 -1.455,0.40525 0,0 -0.406,0.40525 2.265,0.40525 2.666,0 2.022,0.0775 3.394,-0.0825 1.377,-0.16113 2.51,-0.32225 3.476,-0.16113 0.816,0.13675 2.076,0.71288 2.896,0.47363 0.264,0.669 0.527,1.333 0.747,1.95312 -1.836,0.23438 -4.868,-0.7275 -5.352,0.8545 -0.766,0.1465 -1.762,0.376 -2.495,0.51763 -1.211,0.24412 -3.232,0.0825 -3.637,0.32712 -0.406,0.23925 -2.266,0.88863 -0.728,1.04975 1.533,0.16113 2.183,0.16113 3.638,0.16113 1.455,0 2.265,0.40525 3.315,0.32225 0.342,-0.0237 0.679,-0.1025 0.982,-0.20988 1.44,0.76163 1.943,1.40625 2.05,2.03125 -0.131,0.18063 -0.336,0.34663 -0.688,0.44425 -1.694,0.48838 -4.448,0.32725 -4.609,0.5665 -0.162,0.24413 -1.939,1.538 -0.806,2.1045 1.133,0.56638 1.533,1.455 3.394,1.21088 1.508,-0.19525 2.27,-0.28813 3.022,-0.57613 0.381,0.46875 0.981,0.98138 1.914,1.54775 -13.398,-0.13175 -38.242,-0.957 -50.347,1.04013 l -4.648,-0.0688 3.476,0.58587 c 0.357,0.51275 0.435,1.46488 0.411,2.65625 l -1.382,0.80088 c 0,0 -0.567,0.88862 0.483,1.21087 0.274,0.0875 0.537,0.21 0.796,0.34675 -0.156,3.01263 -0.259,6.54775 1.48,8.6035 -0.396,0.17575 -0.757,0.53713 -0.757,0.53713 0,0 0.263,1.5185 1.802,1.5185 l 2.236,0 c 0.718,0 1.518,-0.0975 2.451,-0.20513 2.012,-4.5995 -4.395,-0.88375 -3.882,-3.98437 -0.708,-8.14938 7.979,-8.91113 14.883,-8.43263 -0.06,0.02 -0.117,0 -0.161,0.0288 -0.567,0.23925 -4.048,1.6015 -5.503,1.84563 -1.455,0.24425 -1.939,1.52837 -1.939,1.52837 0,0 1.7,-0.166 1.939,-0.32712 0.244,-0.16113 2.51,-0.81063 2.832,-1.13288 0.234,-0.23437 2.734,-1.3085 4.116,-1.88962 1.773,0.16112 3.369,0.38087 4.575,0.53712 0.513,0.36625 1.094,0.84475 1.485,1.30375 -0.308,0.708 -0.723,1.54788 -1.167,2.46088 -0.63,0.0775 -1.177,0.166 -1.323,0.25387 -0.406,0.24425 -1.377,1.05475 -1.055,1.21588 0.322,0.16112 -0.645,1.294 0.972,1.13287 0.07,-0.0125 0.141,-0.0125 0.219,-0.015 -0.366,0.85938 -0.678,1.71875 -0.893,2.53425 l -3.531,0.1075 c 0,0 -1.904,-0.21975 -1.982,0.02 -0.08,0.24425 -0.952,0.78125 -1.353,0.78125 -0.405,0 -3.471,-0.25875 -3.71,0.14163 -0.245,0.40525 -1.695,1.69437 -0.723,1.69437 0.967,0 1.943,0.40038 2.91,0.15625 0.176,-0.0437 0.381,-0.0738 0.601,-0.0975 -0.147,0.72263 -0.259,1.63088 0.131,1.63088 0.645,0 3.804,0 4.043,-0.4005 0.108,-0.1855 0.943,-1.01075 1.836,-1.87013 l 1.402,-0.4785 c 0,0 0.04,0 0.1,0.0125 -0.04,0.9375 0.136,1.75788 0.708,2.33888 1.894,-0.0288 4.209,0.19537 6.665,0.48838 -0.391,0.15625 -0.796,0.29775 -1.162,0.37587 -1.133,0.24425 -2.71,0.7325 -2.71,1.13775 0,0.40525 -0.367,2.10938 0.122,2.10938 0.483,0 3.554,1.25 3.554,0 0,-2.5 -0.888,-1.9775 0.166,-2.05563 1.05,-0.0825 2.422,-0.21975 2.749,-0.21975 0.313,0 2.149,-0.63962 2.471,-0.669 0.259,0.03 0.518,0.0438 0.772,0.0738 -0.43,1.82138 -2.837,3.31063 -2.837,3.61825 0,0.32225 -2.827,1.61125 0.571,1.04488 3.394,-0.56638 5.425,-0.97163 5.425,-2.26563 l 0,-2.124 c 2.5,0.25388 5.81,0.27338 7.851,-0.332 0.552,2.47063 -6.933,1.15713 -8.042,5.288 2.222,-0.35637 5.874,-0.30275 8.169,0.38088 -1.474,0.50787 -4.175,1.27437 -4.419,1.3965 -0.322,0.16112 -1.704,0.40525 -2.27,0.6445 -0.567,0.24412 -2.915,0.56637 -0.249,0.88875 2.671,0.32712 4.448,0.0825 4.692,-0.16113 0.1,-0.0925 0.308,-0.26375 0.532,-0.4395 -0.371,1.78225 -2.729,1.582 -4.155,2.3095 -0.693,-0.0825 -1.494,-0.1855 -1.636,-0.1855 -0.244,0 -2.021,0.30763 -2.021,0.30763 l -1.46,0 c -0.239,0 -1.128,1.25 -1.128,1.25 l 4.365,0 c 0.127,0 0.464,0.0537 0.899,0.0775 1.494,0.62012 2.861,1.38187 3.794,2.56837 -1.045,0.1175 -2.344,-0.0125 -3.389,0.1125 l -0.09,-0.0975 c 0,0 -2.183,0.0775 -2.427,0.0775 -0.239,0 -2.827,0.32713 -2.827,0.32713 0,0 1.86,1.53812 3.154,1.21587 0.254,-0.0637 0.459,-0.1125 0.664,-0.15625 0.879,0.54688 1.451,1.04488 1.778,1.499 -1.406,0.0588 -3.443,0.38088 -3.443,0.38088 l -5.068,0.75687 c 0.972,0.64938 2.051,0.75675 2.7,0.86425 0.645,0.1025 3.667,0.6445 3.882,0.32225 0.215,-0.32225 0.752,-0.86425 1.074,-0.97175 0.2,-0.0688 0.635,0.29788 1.138,0.14163 -0.283,0.708 -1.133,1.26462 -1.968,1.709 l -17.178,0.20025 -0.322,1.079 17.149,0.32237 c -1.016,1.27438 -1.089,1.81638 -0.679,2.00675 l -1.802,0.79588 c 0,0 -0.864,-0.1075 -1.186,-0.1075 -0.323,0 -1.402,0.85937 -1.402,0.85937 0,0 0.43,1.62113 1.294,1.62113 0.86,0 2.91,-0.42975 2.91,-0.42975 l 0.323,0.53712 c 0,0 3.344,1.40138 3.344,0.21488 0,-1.1865 0,-1.94338 0.43,-2.15825 0.43,-0.21475 1.943,-0.75188 1.943,-0.75188 -1.01,2.65138 -0.708,4.331 -1.211,5.53213 -0.556,-0.0338 -1.084,-0.0588 -1.323,-0.0588 -0.649,0 -3.266,-0.962 -2.939,-0.20513 0.322,0.75688 2.886,1.20113 2.886,1.20113 l 0.908,-0.2245 c -0.567,0.60537 -1.577,1.079 -3.496,1.5185 0.02,0.015 0.04,0.02 0.06,0.0288 -0.879,0.42487 -3.687,0.46875 -3.579,0.78612 0.107,0.32725 2.978,0.90338 3.52,0.90338 l 2.588,0 c 0.195,0 0.278,-0.65425 0.327,-0.86425 2.383,0.0438 5.298,-0.38088 7.437,1.84087 -2.813,0.63963 -7.701,-1.27937 -10.249,-0.37112 -5.918,-0.0487 -14.732,-0.6055 -15.796,-0.6055 l -8.897,0 4.854,1.88962 c 0,0 3.398,-0.2685 5.175,-0.42962 1.783,-0.16113 10.191,0.75675 11.163,0.75675 0.385,0 1.704,0.21 3.144,0.3955 4.312,2.18262 -4.927,-0.49313 -4.922,3.40337 7.036,-1.86037 3.657,6.70413 7.764,7.77838 -3.213,-0.1905 -6.284,-0.23438 -6.47,2.59762 2.549,0.0637 5.259,0.376 7.71,0.7715 -0.835,0.1225 -1.665,0.249 -1.889,0.28313 -0.484,0.0825 -2.588,-0.16113 -2.105,0.166 0.488,0.32237 1.699,1.77737 3.398,1.294 1.7,-0.48825 3.477,-0.8935 3.477,-0.8935 l -0.303,-0.38088 c 2.442,0.48338 4.375,1.00588 5.24,1.3525 -3.213,2.50488 -4.61,-1.26462 -6.47,2.58788 0.283,0.84475 0.503,1.57712 0.688,2.2315 -0.298,-0.0437 -0.644,-0.025 -1.093,0.1175 -2.105,0.64449 -2.749,0.88874 -2.749,0.88874 l -0.728,-0.40537 c 0,0 -0.08,-2.58788 -0.772,-2.70988 l -0.991,1.34763 -3.335,0.708 -1.372,0 c 0,0 -3.803,-0.84963 -3.237,0.20513 0.566,1.05462 3.965,1.88474 3.965,1.88474 0,0 0.644,0.20988 0.644,0.45413 0,0.24412 1.377,1.07412 1.377,1.07412 0,0 2.1,0.26863 2.344,0.26863 0.244,0 2.022,-0.13675 2.427,-0.13675 l 4.345,0 c 0.274,0 0.596,1.06937 1.167,1.67975 l -4.462,0.1855 -4.932,0.2295 c 0,0 -2.022,-0.21 -0.327,0.4345 1.699,0.6495 5.908,0.86925 5.908,0.86925 0,0 2.183,-0.9815 2.505,-1.0645 0.322,-0.0775 1.538,-0.0875 1.86,-0.249 0.05,-0.025 0.108,-0.0825 0.161,-0.127 0.464,0.37112 1.04,0.74713 1.783,1.17675 -4.737,-0.65425 -3.472,0.39062 -2.32,1.56738 l -1.001,0.0487 c 0,0 -4.687,-0.40525 -4.038,0.23925 0.41,0.415 2.168,1.4795 3.643,2.01175 -0.06,0 -0.108,0.0125 -0.166,0.0125 0.09,0.71775 0.327,1.29387 0.639,1.792 -1.186,0.1225 -3.076,0.33687 -3.471,0.39057 -0.567,0.082 -2.671,-0.56145 -2.183,0.082 0.484,0.6494 3.721,1.6162 3.96,1.455 0.244,-0.1611 -0.644,-0.5663 1.216,-0.4003 0.84,0.069 1.553,0.2978 2.1,0.3321 0.649,0.5321 1.318,0.5859 1.86,1.8359 l -2.827,0 -5.503,-0.077 c 0,0 0.327,1.2207 0.649,1.2988 0.322,0.082 1.538,0.288 2.344,0.044 0.81,-0.2441 2.749,-0.4198 3.643,-0.5028 0.888,-0.083 2.182,-0.093 2.182,-0.093 l 0.09,-0.1514 c 0.142,0.2636 0.249,0.5615 0.337,0.8789 -1.821,0.015 -4.409,0.049 -4.775,0.1513 -0.562,0.166 -5.386,1.2452 -5.63,1.2452 -0.239,0 -6.841,-0.293 -6.841,-0.293 l -2.026,0 c 0,0 -0.567,1.5868 1.054,1.3427 1.616,-0.2392 4.527,-0.2149 4.849,-0.3809 0.327,-0.1562 1.943,-0.2685 2.266,-0.2685 0.327,0 4.531,0.2295 4.531,0.2295 0,0 2.671,-0.5712 2.91,-0.5712 0.244,0 3.237,-0.2443 3.237,-0.2443 l 0.611,0.064 c 0.01,0.2784 -0.01,0.5812 -0.04,0.9034 -0.07,0.1806 -0.123,0.3418 -0.181,0.5126 -0.425,-0.012 -0.84,-0.029 -0.952,-0.029 -0.244,0 -2.832,0.077 -2.832,0.077 0,0 -0.889,-0.1611 -0.406,0.3272 0.489,0.4833 1.133,1.211 1.622,1.3721 0.376,0.1269 1.396,0.4491 1.821,0.5859 -0.264,0.9082 -0.474,1.0791 -0.713,2.3291 l -0.06,0 c 0,0 -1.538,-0.2441 -2.915,-1.2159 -1.372,-0.9667 -1.05,0.4884 -2.261,0.8888 -1.216,0.4052 -1.455,0.6298 -1.538,0.8691 -0.08,0.2441 0.65,0.708 0.65,0.708 l 5.175,0 0.2,0.1175 c -0.332,0.4442 -0.766,1.1327 -1.352,1.1327 l -7.905,0 c 0,0 -2.027,0.2052 -1.46,0.6885 0.566,0.4883 3.076,1.5625 3.076,1.5625 0,0 0.972,0.2685 1.616,-0.3027 0.65,-0.5615 3.316,-0.6983 3.316,-0.6983 l 1.054,0 c 0.825,1.25 1.197,0.9229 1.221,1.5772 -0.07,0 -0.137,0.044 -0.171,0.059 -0.244,0.082 -2.349,0.7421 -2.349,0.7421 l -1.533,0.7325 -4.209,1.0595 c 0,0 -1.05,0.2442 0,0.3272 1.055,0.077 4.37,0.2442 4.693,0.077 0.322,-0.1611 0.727,-0.9668 1.294,-0.8887 0.224,0.034 0.771,0.069 1.342,0.092 -0.669,0.7471 -1.635,1.3575 -2.715,1.5235 1.524,0.2051 3.672,-0.2198 3.882,1.2989 0.327,3.6913 -6.987,1.5428 -4.458,4.5653 -0.63,0.082 -1.421,0.1709 -1.606,0.1225 -0.327,-0.078 -1.782,-0.8057 -1.861,-1.0498 -0.08,-0.2442 -0.405,-0.7275 -0.405,-0.7275 0,0 -0.566,-1.211 -1.621,-0.3223 -1.05,0.8886 -2.427,0.3223 -1.616,1.6161 0.81,1.294 2.51,2.3438 2.832,2.1045 0.322,-0.2441 0.81,-0.6493 1.133,-0.6493 0.322,0 1.777,0.082 1.777,0.082 l 1.616,0.4834 0.606,-0.1417 c 1.543,4.1505 3.393,-4.1015 4.897,1.6798 -3.432,2.9101 -12.319,0.034 -17.71,0.9912 -0.18,-0.025 -0.327,-0.3565 -0.41,-0.3565 l -15.527,0 c 0,0 -0.645,1.2989 -0.972,1.2989 -0.322,0 -5.82,0.2734 -5.82,0.2734 0,0 -1.079,1.2695 -0.757,1.2695 l 9.409,0.2002 0.811,-0.8691 3.559,-0.069 c 0,0 -2.915,0.9765 0,1.377 2.91,0.4053 3.799,-0.4786 3.799,-0.4786 l 0.322,-1.1328 2.632,0.054 c -0.01,0.012 -0.03,0.02 -0.04,0.029 0.728,0.21 1.499,0.376 2.305,0.5128 l 1.416,0.9424 2.104,1.0497 c 0,0 1.939,-0.7275 1.939,-1.0497 0,-0.088 -0.07,-0.254 -0.166,-0.4493 3.183,0.1611 6.269,0.1953 8.31,0.7324 -0.337,0.1611 -1.025,0.503 -1.025,0.7471 0,0.3223 -0.483,0.9814 -0.889,1.2256 -0.405,0.2442 -2.021,1.0157 -2.021,1.0157 0,0 -2.427,0.1463 -0.65,0.1463 1.783,0 4.776,-0.2928 5.015,-0.2928 0.142,0 1.089,0.205 1.851,0.371 -0.02,0.077 -0.04,0.1465 -0.07,0.2246 0.2,-0.02 0.395,0.1319 0.581,0.078 0.278,0.064 0.468,0.293 0.468,0.293 l 1.539,0 c 0,0 2.504,-0.8301 1.372,-1.8848 -0.1,-0.088 -0.22,-0.2783 -0.342,-0.3711 1.069,-0.7177 1.938,-0.8251 2.851,1.9288 -5.2,1.123 -13.379,2.2997 -19.331,4.7021 -0.141,-0.1175 -0.8,-0.7569 -1.377,-2.5781 -0.644,-2.0459 -1.401,-0.7618 -4.741,-1.1914 -3.345,-0.4298 -1.401,0.8594 -1.943,1.3965 -0.537,0.542 -1.079,2.2656 -1.079,2.2656 0,0 -3.233,-0.542 -3.555,-0.542 -0.327,0 -2.158,0.3223 -2.158,0.3223 l -0.322,0.8642 c 0,0 -1.729,-0.5371 -4.424,0.3223 -2.696,0.8642 0.215,2.915 0.215,2.915 l 19.028,0.3272 c 7.036,0.7568 16.245,-0.6592 22.832,0.5469 -0.449,0.1855 -0.977,0.371 -1.421,0.4199 -0.972,0.1075 -1.831,0.8593 -1.831,0.8593 0,0 1.294,1.0792 1.724,0.6494 0.429,-0.4296 2.158,-1.2939 2.158,-1.2939 l 0.137,-0.4638 c 0.908,0.205 1.777,0.4541 2.558,0.7861 2.525,0.3174 4.468,1.1962 5.786,2.2362 -0.1,0.6007 -0.229,1.3233 -0.288,1.8068 -0.107,0.8642 -6.792,-0.2735 -6.792,-0.2735 l -2.915,0 -8.706,0.7569 20.63,0.3417 c 0.01,0.069 0.04,0.1514 0.05,0.1514 l 205.684,0 -1.294,-25 -82.749,0 c -7.603,0 -13.604,-4.9756 -13.604,-12.3633 l 0,-100.93747 c 0,-2.8565 2.979,-4.19437 5.835,-4.19437 l 28.472,0 c 2.861,0 4.443,1.33787 4.443,4.19437 l 0,78.30563 37.5,0 0,-78.30563 c 0,-2.8565 1.783,-4.19437 4.639,-4.19437 l 28.472,0 c 2.861,0 5.639,1.33787 5.639,4.19437 l 0,84.55563 9.888,0 c 3.843,0 8.535,3.50104 7.764,9.40424 l -2.515,44.3456 10.249,0 c 0,0 22.793,-2.5341 25.376,-23.6768 1.597,-13.0712 6.631,-52.77345 6.631,-52.77345 1.772,-15.65912 5.654,-24.52137 18.262,-22.10437 15.942,3.0615 34.751,11.787 65.136,9.19912 23.741,-2.01662 39.639,-5.039 47.857,-12.417 3.784,-3.164 5.859,-6.7285 5.859,-10.92275 0,-5.47862 -3.847,-10.30275 -9.687,-13.13488"
       style="fill:#000000;fill-opacity:1;fill-rule:nonzero;stroke:#000000;stroke-opacity:1"
       inkscape:connector-curvature="0" />
  </g>
</svg>
